<svg xmlns="http://www.w3.org/2000/svg" version="1.1" xmlns:xlink="http://www.w3.org/1999/xlink" xmlns:svgjs="http://svgjs.dev/svgjs" width="1440" height="560" preserveAspectRatio="none" viewBox="0 0 1440 560"><g mask="url(&quot;#SvgjsMask1008&quot;)" fill="none"><path d="M0 0L370.96 0L0 144.89z" fill="rgba(255, 255, 255, .1)"></path><path d="M0 144.89L370.96 0L643.6800000000001 0L0 178.73999999999998z" fill="rgba(255, 255, 255, .075)"></path><path d="M0 178.73999999999998L643.6800000000001 0L666.1700000000001 0L0 189.40999999999997z" fill="rgba(255, 255, 255, .05)"></path><path d="M0 189.40999999999997L666.1700000000001 0L914.99 0L0 356.0799999999999z" fill="rgba(255, 255, 255, .025)"></path><path d="M1440 560L1152.71 560L1440 481.81z" fill="rgba(0, 0, 0, .1)"></path><path d="M1440 481.81L1152.71 560L978.27 560L1440 230.11z" fill="rgba(0, 0, 0, .075)"></path><path d="M1440 230.11L978.27 560L586.03 560L1440 111.56000000000002z" fill="rgba(0, 0, 0, .05)"></path><path d="M1440 111.56L586.03 560L308.82 560L1440 77.37z" fill="rgba(0, 0, 0, .025)"></path></g><defs><mask id="SvgjsMask1008"><rect width="1440" height="560" fill="#ffffff"></rect></mask></defs></svg>